<?xml version="1.0" encoding="utf-8"?>
<!-- Generator: Adobe Illustrator 15.0.0, SVG Export Plug-In . SVG Version: 6.00 Build 0)  -->
<!DOCTYPE svg PUBLIC "-//W3C//DTD SVG 1.1//EN" "http://www.w3.org/Graphics/SVG/1.1/DTD/svg11.dtd">
<svg version="1.1" id="Capa_1" xmlns="http://www.w3.org/2000/svg" xmlns:xlink="http://www.w3.org/1999/xlink" x="0px" y="0px"
	 width="431px" height="104.882px" viewBox="0 0 431 104.882" enable-background="new 0 0 431 104.882" xml:space="preserve">
<path fill="#5C5B5F" d="M218.272,23.774v12.864h-2.127c-0.978-3.359-2.106-5.605-3.383-6.739c-1.279-1.133-3.059-1.7-5.337-1.7
	H192.88v19.664h12.591c2.255,0,3.86-0.553,4.814-1.659c0.952-1.106,1.429-3.106,1.429-6.002h2.337v20.156h-2.337
	c0-3.141-0.436-5.265-1.308-6.371c-0.872-1.106-2.517-1.659-4.936-1.659H192.88v17.165c0,1.584,0.092,2.739,0.279,3.461
	c0.186,0.724,0.552,1.223,1.099,1.495c0.545,0.274,1.424,0.409,2.632,0.409h10.674c2.418,0,4.412-0.402,5.982-1.208
	c1.569-0.805,2.906-2.013,4.011-3.625c1.104-1.611,2.25-3.851,3.435-6.718h2.267l-3.976,16.018h-43.25v-2.663
	c1.954,0,3.43-0.218,4.43-0.656c1-0.436,1.703-1.262,2.11-2.479c0.407-1.214,0.611-3.038,0.611-5.469v-33.06
	c0-2.403-0.198-4.219-0.593-5.448c-0.396-1.229-1.094-2.062-2.093-2.499c-1-0.437-2.488-0.656-4.465-0.656v-2.622H218.272z"/>
<path fill="#5C5B5F" d="M256.847,80.881h-2.558l-20.992-45.964c-1.12-2.485-2.048-4.314-2.786-5.489
	c-0.738-1.174-1.488-1.973-2.252-2.396c-0.764-0.423-1.729-0.635-2.9-0.635v-2.622h23.014v2.622c-3.282,0-4.924,1.161-4.924,3.482
	c0,0.656,0.128,1.338,0.381,2.048c0.254,0.71,0.929,2.253,2.023,4.629l12.9,28.184l10.535-27.856
	c1.169-3.086,1.756-5.257,1.756-6.513c0-1.42-0.396-2.438-1.184-3.052c-0.789-0.615-2.086-0.922-3.893-0.922v-2.622h15.61v2.622
	c-1.4,0.219-2.47,0.602-3.207,1.147c-0.739,0.546-1.495,1.598-2.271,3.155c-0.777,1.556-1.788,4.001-3.035,7.333L256.847,80.881z"/>
<path fill="#5C5B5F" d="M319.847,23.774h27.839c4.414,0,8.293,0.813,11.638,2.438c3.346,1.625,6.097,3.775,8.259,6.452
	c2.16,2.677,3.775,5.653,4.846,8.931c1.069,3.277,1.604,6.582,1.604,9.914c0,4.506-1.001,8.896-3.004,13.17
	c-2.001,4.274-5.129,7.784-9.383,10.528c-4.256,2.744-9.546,4.117-15.87,4.117h-25.028v-1.532c0,0,2.121,0.037,2.559,0.001
	c1.043-0.086,2.032-1.328,2.042-2.633c0.014-1.943,0.042-44.052,0.042-45.603c0-2.666-1.614-3.974-2.704-3.974
	c-1.276,0-2.84,0-2.84,0V23.774z M338.854,75.216c2.554,0.011,8.513,0.05,8.896-0.125c11.716-5.318,11.929-20.197,11.929-23.337
	c0-14.419-9.749-23.43-11.814-23.43c-3.19,0-6.457,0.075-8.935,0.075L338.854,75.216z"/>
<path fill="#5C5B5F" d="M385.058,64.688l-3.439,7.381c-1.729,3.203-1.667,5.646,2.292,5.728v1.761h-14.548v-1.761
	c1.696-0.055,4.308-1.891,5.628-3.257c1.32-1.365,2.39-3.365,3.614-6.452l19.762-45.104h2.05l20.486,49.242
	c0.541,1.229,1.096,2.165,1.662,2.806c0.565,0.642,3.617,2.683,4.843,2.765v1.761h-21.812v-1.761
	c1.956-0.027,3.128-0.656,2.388-3.769c-0.253-1.063-3.535-9.34-3.535-9.34H385.058z M402.469,60.029l-7.779-16.592l-7.867,16.592
	H402.469z"/>
<g>
	<path fill="#5C5B5F" d="M13.27,95.982l1.622,0.409c-0.34,1.333-0.952,2.349-1.834,3.047c-0.884,0.7-1.964,1.05-3.239,1.05
		c-1.321,0-2.395-0.27-3.223-0.807c-0.827-0.538-1.458-1.317-1.889-2.336c-0.432-1.021-0.647-2.115-0.647-3.286
		c0-1.275,0.244-2.389,0.731-3.339c0.488-0.951,1.182-1.672,2.082-2.166c0.9-0.493,1.89-0.739,2.972-0.739
		c1.226,0,2.257,0.312,3.093,0.937c0.836,0.624,1.418,1.501,1.747,2.632l-1.597,0.377c-0.284-0.893-0.697-1.542-1.237-1.948
		c-0.541-0.407-1.22-0.611-2.04-0.611c-0.942,0-1.729,0.226-2.362,0.678c-0.632,0.451-1.077,1.057-1.333,1.817
		c-0.257,0.761-0.384,1.546-0.384,2.354c0,1.042,0.152,1.953,0.456,2.729c0.304,0.778,0.775,1.358,1.417,1.743
		C8.243,98.908,8.937,99.1,9.684,99.1c0.908,0,1.677-0.261,2.307-0.785C12.621,97.791,13.047,97.014,13.27,95.982z"/>
	<path fill="#5C5B5F" d="M16.171,95.841c0-1.645,0.457-2.862,1.371-3.653c0.763-0.657,1.694-0.987,2.792-0.987
		c1.22,0,2.218,0.4,2.993,1.2c0.774,0.8,1.162,1.905,1.162,3.314c0,1.143-0.172,2.042-0.514,2.696
		c-0.343,0.655-0.842,1.164-1.497,1.525c-0.655,0.362-1.37,0.543-2.144,0.543c-1.243,0-2.247-0.399-3.013-1.195
		C16.555,98.488,16.171,97.339,16.171,95.841z M17.718,95.841c0,1.137,0.248,1.988,0.744,2.554c0.496,0.565,1.12,0.848,1.873,0.848
		c0.747,0,1.368-0.284,1.864-0.853c0.496-0.568,0.744-1.435,0.744-2.6c0-1.097-0.25-1.929-0.749-2.495
		c-0.499-0.566-1.119-0.85-1.86-0.85c-0.752,0-1.376,0.282-1.873,0.845C17.965,93.854,17.718,94.704,17.718,95.841z"/>
	<path fill="#5C5B5F" d="M26.288,100.279v-8.877h1.345v1.245c0.279-0.435,0.649-0.784,1.112-1.049
		c0.462-0.264,0.989-0.397,1.58-0.397c0.658,0,1.197,0.137,1.618,0.41c0.421,0.273,0.717,0.655,0.891,1.146
		c0.702-1.037,1.616-1.555,2.742-1.555c0.88,0,1.557,0.244,2.031,0.731c0.474,0.488,0.71,1.239,0.71,2.252v6.095H36.82v-5.593
		c0-0.602-0.049-1.035-0.147-1.3c-0.097-0.264-0.274-0.478-0.53-0.64c-0.257-0.161-0.558-0.242-0.903-0.242
		c-0.625,0-1.143,0.208-1.555,0.623c-0.413,0.416-0.619,1.08-0.619,1.993v5.158h-1.505v-5.768c0-0.669-0.123-1.171-0.368-1.505
		c-0.246-0.334-0.647-0.502-1.204-0.502c-0.423,0-0.815,0.112-1.174,0.334c-0.359,0.223-0.62,0.549-0.782,0.978
		c-0.162,0.43-0.242,1.048-0.242,1.857v4.605H26.288z"/>
	<path fill="#5C5B5F" d="M40.591,89.755v-1.731h1.505v1.731H40.591z M40.591,100.279v-8.877h1.505v8.877H40.591z"/>
	<path fill="#5C5B5F" d="M43.818,97.629l1.488-0.234c0.083,0.597,0.316,1.054,0.699,1.371c0.381,0.318,0.915,0.477,1.601,0.477
		c0.69,0,1.203-0.141,1.538-0.422s0.502-0.612,0.502-0.991c0-0.339-0.148-0.607-0.443-0.803c-0.206-0.134-0.719-0.304-1.538-0.509
		c-1.104-0.279-1.868-0.519-2.294-0.723c-0.426-0.204-0.75-0.485-0.97-0.844c-0.22-0.36-0.33-0.757-0.33-1.192
		c0-0.396,0.09-0.762,0.271-1.099c0.182-0.337,0.428-0.618,0.74-0.84c0.234-0.173,0.553-0.318,0.957-0.439
		c0.404-0.12,0.837-0.18,1.3-0.18c0.697,0,1.309,0.101,1.835,0.301c0.527,0.201,0.916,0.472,1.167,0.815
		c0.251,0.343,0.423,0.802,0.518,1.375l-1.471,0.201c-0.067-0.456-0.26-0.814-0.581-1.07c-0.32-0.256-0.773-0.384-1.358-0.384
		c-0.691,0-1.185,0.114-1.48,0.342c-0.295,0.229-0.443,0.497-0.443,0.803c0,0.195,0.062,0.372,0.184,0.527
		c0.122,0.162,0.314,0.295,0.577,0.401c0.15,0.055,0.593,0.184,1.329,0.384c1.064,0.284,1.807,0.517,2.228,0.698
		c0.42,0.181,0.75,0.444,0.991,0.79c0.239,0.346,0.359,0.774,0.359,1.288c0,0.501-0.146,0.974-0.438,1.417
		c-0.293,0.443-0.715,0.786-1.267,1.029c-0.552,0.242-1.176,0.363-1.873,0.363c-1.153,0-2.033-0.239-2.638-0.719
		C44.372,99.281,43.985,98.572,43.818,97.629z"/>
	<path fill="#5C5B5F" d="M53.023,89.755v-1.731h1.504v1.731H53.023z M53.023,100.279v-8.877h1.504v8.877H53.023z"/>
	<path fill="#5C5B5F" d="M56.292,95.841c0-1.645,0.457-2.862,1.371-3.653c0.764-0.657,1.694-0.987,2.792-0.987
		c1.221,0,2.218,0.4,2.993,1.2c0.774,0.8,1.162,1.905,1.162,3.314c0,1.143-0.171,2.042-0.514,2.696
		c-0.343,0.655-0.841,1.164-1.496,1.525c-0.655,0.362-1.37,0.543-2.145,0.543c-1.243,0-2.247-0.399-3.013-1.195
		C56.676,98.488,56.292,97.339,56.292,95.841z M57.838,95.841c0,1.137,0.249,1.988,0.745,2.554c0.496,0.565,1.12,0.848,1.872,0.848
		c0.747,0,1.368-0.284,1.864-0.853c0.496-0.568,0.744-1.435,0.744-2.6c0-1.097-0.25-1.929-0.749-2.495
		c-0.499-0.566-1.119-0.85-1.86-0.85c-0.752,0-1.376,0.282-1.872,0.845C58.087,93.854,57.838,94.704,57.838,95.841z M59.62,90.298
		l1.111-2.341h1.973l-1.839,2.341H59.62z"/>
	<path fill="#5C5B5F" d="M66.408,100.279v-8.877h1.354v1.262c0.652-0.976,1.593-1.463,2.826-1.463c0.535,0,1.027,0.096,1.475,0.289
		c0.449,0.192,0.784,0.444,1.007,0.756c0.223,0.312,0.379,0.683,0.468,1.112c0.055,0.279,0.083,0.767,0.083,1.463v5.459h-1.505v-5.4
		c0-0.614-0.058-1.071-0.175-1.375c-0.117-0.303-0.324-0.546-0.623-0.727c-0.298-0.181-0.648-0.272-1.049-0.272
		c-0.641,0-1.194,0.203-1.659,0.61c-0.465,0.407-0.698,1.179-0.698,2.315v4.849H66.408z"/>
	<path fill="#5C5B5F" d="M80.93,100.279V88.024h1.664l6.437,9.623v-9.623h1.555v12.255h-1.664l-6.437-9.63v9.63H80.93z"/>
	<path fill="#5C5B5F" d="M98.945,99.185c-0.557,0.474-1.094,0.808-1.609,1.003c-0.516,0.194-1.069,0.292-1.659,0.292
		c-0.976,0-1.725-0.238-2.249-0.714c-0.524-0.477-0.786-1.086-0.786-1.827c0-0.435,0.099-0.831,0.296-1.191
		c0.198-0.359,0.457-0.648,0.778-0.865s0.682-0.382,1.083-0.494c0.295-0.077,0.741-0.153,1.338-0.226
		c1.214-0.145,2.109-0.317,2.683-0.518c0.006-0.206,0.009-0.337,0.009-0.394c0-0.612-0.142-1.044-0.426-1.295
		c-0.385-0.34-0.956-0.511-1.714-0.511c-0.708,0-1.23,0.125-1.567,0.373c-0.337,0.248-0.586,0.688-0.749,1.317l-1.471-0.201
		c0.133-0.629,0.354-1.138,0.66-1.525c0.306-0.387,0.75-0.685,1.329-0.895c0.58-0.209,1.251-0.314,2.015-0.314
		c0.758,0,1.374,0.089,1.848,0.268c0.473,0.178,0.822,0.403,1.045,0.673c0.222,0.271,0.379,0.612,0.468,1.024
		c0.05,0.256,0.075,0.718,0.075,1.387v2.006c0,1.399,0.033,2.285,0.097,2.655c0.064,0.37,0.19,0.726,0.38,1.065h-1.572
		C99.09,99.967,98.99,99.602,98.945,99.185z M98.819,95.824c-0.546,0.223-1.365,0.413-2.458,0.568
		c-0.619,0.09-1.056,0.19-1.313,0.301c-0.256,0.112-0.454,0.275-0.593,0.489c-0.14,0.215-0.208,0.453-0.208,0.715
		c0,0.401,0.151,0.735,0.456,1.003c0.304,0.267,0.748,0.401,1.333,0.401c0.579,0,1.095-0.125,1.546-0.38
		c0.451-0.253,0.783-0.6,0.995-1.04c0.162-0.341,0.242-0.842,0.242-1.505V95.824z"/>
	<path fill="#5C5B5F" d="M108.5,97.027l1.48,0.193c-0.162,1.02-0.575,1.818-1.242,2.396c-0.666,0.576-1.484,0.865-2.453,0.865
		c-1.215,0-2.192-0.397-2.93-1.191c-0.739-0.794-1.107-1.932-1.107-3.414c0-0.959,0.159-1.798,0.477-2.517
		c0.318-0.719,0.801-1.258,1.45-1.617c0.649-0.36,1.355-0.54,2.119-0.54c0.964,0,1.752,0.244,2.366,0.731
		c0.613,0.488,1.006,1.18,1.179,2.078l-1.463,0.227c-0.14-0.597-0.386-1.046-0.74-1.347s-0.781-0.451-1.283-0.451
		c-0.758,0-1.375,0.271-1.847,0.814c-0.474,0.544-0.711,1.403-0.711,2.579c0,1.192,0.229,2.059,0.685,2.6
		c0.457,0.541,1.054,0.811,1.79,0.811c0.59,0,1.083-0.181,1.479-0.544C108.144,98.337,108.395,97.78,108.5,97.027z"/>
	<path fill="#5C5B5F" d="M111.311,89.755v-1.731h1.505v1.731H111.311z M111.311,100.279v-8.877h1.505v8.877H111.311z"/>
	<path fill="#5C5B5F" d="M114.58,95.841c0-1.645,0.457-2.862,1.371-3.653c0.763-0.657,1.693-0.987,2.792-0.987
		c1.221,0,2.218,0.4,2.993,1.2c0.774,0.8,1.162,1.905,1.162,3.314c0,1.143-0.171,2.042-0.514,2.696
		c-0.342,0.655-0.841,1.164-1.496,1.525c-0.655,0.362-1.37,0.543-2.145,0.543c-1.243,0-2.247-0.399-3.014-1.195
		C114.963,98.488,114.58,97.339,114.58,95.841z M116.126,95.841c0,1.137,0.248,1.988,0.744,2.554
		c0.496,0.565,1.121,0.848,1.873,0.848c0.747,0,1.368-0.284,1.864-0.853c0.496-0.568,0.744-1.435,0.744-2.6
		c0-1.097-0.249-1.929-0.748-2.495c-0.499-0.566-1.119-0.85-1.86-0.85c-0.752,0-1.376,0.282-1.873,0.845
		S116.126,94.704,116.126,95.841z"/>
	<path fill="#5C5B5F" d="M124.695,100.279v-8.877h1.354v1.262c0.652-0.976,1.594-1.463,2.826-1.463c0.535,0,1.027,0.096,1.476,0.289
		c0.448,0.192,0.784,0.444,1.007,0.756c0.223,0.312,0.378,0.683,0.468,1.112c0.056,0.279,0.084,0.767,0.084,1.463v5.459h-1.505v-5.4
		c0-0.614-0.059-1.071-0.176-1.375c-0.117-0.303-0.325-0.546-0.623-0.727c-0.298-0.181-0.648-0.272-1.049-0.272
		c-0.641,0-1.194,0.203-1.659,0.61c-0.465,0.407-0.698,1.179-0.698,2.315v4.849H124.695z"/>
	<path fill="#5C5B5F" d="M140.044,99.185c-0.558,0.474-1.094,0.808-1.609,1.003c-0.516,0.194-1.069,0.292-1.66,0.292
		c-0.976,0-1.725-0.238-2.249-0.714c-0.524-0.477-0.786-1.086-0.786-1.827c0-0.435,0.099-0.831,0.297-1.191
		c0.197-0.359,0.457-0.648,0.777-0.865c0.321-0.217,0.682-0.382,1.083-0.494c0.295-0.077,0.741-0.153,1.337-0.226
		c1.214-0.145,2.109-0.317,2.684-0.518c0.005-0.206,0.008-0.337,0.008-0.394c0-0.612-0.142-1.044-0.426-1.295
		c-0.384-0.34-0.956-0.511-1.713-0.511c-0.708,0-1.23,0.125-1.567,0.373c-0.337,0.248-0.587,0.688-0.748,1.317L134,93.935
		c0.134-0.629,0.354-1.138,0.661-1.525c0.306-0.387,0.749-0.685,1.329-0.895c0.579-0.209,1.251-0.314,2.014-0.314
		c0.758,0,1.374,0.089,1.848,0.268c0.473,0.178,0.821,0.403,1.044,0.673c0.223,0.271,0.379,0.612,0.468,1.024
		c0.05,0.256,0.075,0.718,0.075,1.387v2.006c0,1.399,0.032,2.285,0.096,2.655c0.064,0.37,0.191,0.726,0.38,1.065h-1.571
		C140.188,99.967,140.088,99.602,140.044,99.185z M139.919,95.824c-0.547,0.223-1.366,0.413-2.458,0.568
		c-0.619,0.09-1.057,0.19-1.313,0.301c-0.257,0.112-0.454,0.275-0.593,0.489c-0.14,0.215-0.209,0.453-0.209,0.715
		c0,0.401,0.152,0.735,0.455,1.003c0.304,0.267,0.749,0.401,1.333,0.401c0.58,0,1.095-0.125,1.546-0.38
		c0.452-0.253,0.783-0.6,0.995-1.04c0.162-0.341,0.243-0.842,0.243-1.505V95.824z"/>
	<path fill="#5C5B5F" d="M143.773,100.279V88.024h1.505v12.255H143.773z"/>
	<path fill="#5C5B5F" d="M152.435,103.682v-12.28h1.371v1.153c0.323-0.451,0.688-0.79,1.095-1.015
		c0.406-0.227,0.899-0.339,1.479-0.339c0.758,0,1.426,0.196,2.006,0.585c0.58,0.39,1.017,0.941,1.313,1.651
		c0.295,0.711,0.443,1.49,0.443,2.337c0,0.908-0.163,1.726-0.489,2.454c-0.327,0.727-0.8,1.284-1.421,1.671s-1.274,0.581-1.96,0.581
		c-0.501,0-0.952-0.105-1.35-0.318c-0.398-0.212-0.726-0.479-0.982-0.802v4.322H152.435z M153.798,95.89
		c0,1.143,0.231,1.987,0.694,2.533c0.462,0.547,1.022,0.819,1.68,0.819c0.669,0,1.242-0.283,1.718-0.848
		c0.477-0.566,0.715-1.442,0.715-2.629c0-1.131-0.233-1.978-0.698-2.541c-0.465-0.563-1.021-0.845-1.667-0.845
		c-0.641,0-1.208,0.3-1.701,0.899C154.044,93.878,153.798,94.749,153.798,95.89z"/>
	<path fill="#5C5B5F" d="M167.784,99.185c-0.557,0.474-1.093,0.808-1.608,1.003c-0.516,0.194-1.069,0.292-1.66,0.292
		c-0.976,0-1.725-0.238-2.249-0.714c-0.524-0.477-0.786-1.086-0.786-1.827c0-0.435,0.099-0.831,0.297-1.191
		c0.198-0.359,0.457-0.648,0.777-0.865c0.321-0.217,0.682-0.382,1.083-0.494c0.295-0.077,0.741-0.153,1.337-0.226
		c1.215-0.145,2.109-0.317,2.684-0.518c0.005-0.206,0.008-0.337,0.008-0.394c0-0.612-0.142-1.044-0.426-1.295
		c-0.384-0.34-0.956-0.511-1.714-0.511c-0.708,0-1.23,0.125-1.568,0.373c-0.336,0.248-0.586,0.688-0.748,1.317l-1.471-0.201
		c0.134-0.629,0.354-1.138,0.66-1.525s0.75-0.685,1.329-0.895c0.58-0.209,1.251-0.314,2.015-0.314c0.758,0,1.374,0.089,1.848,0.268
		c0.473,0.178,0.822,0.403,1.045,0.673c0.223,0.271,0.378,0.612,0.468,1.024c0.05,0.256,0.075,0.718,0.075,1.387v2.006
		c0,1.399,0.032,2.285,0.096,2.655c0.064,0.37,0.191,0.726,0.381,1.065h-1.572C167.929,99.967,167.828,99.602,167.784,99.185z
		 M167.659,95.824c-0.546,0.223-1.366,0.413-2.458,0.568c-0.619,0.09-1.057,0.19-1.313,0.301c-0.257,0.112-0.455,0.275-0.593,0.489
		c-0.14,0.215-0.209,0.453-0.209,0.715c0,0.401,0.152,0.735,0.456,1.003c0.304,0.267,0.749,0.401,1.333,0.401
		c0.579,0,1.095-0.125,1.546-0.38c0.451-0.253,0.783-0.6,0.995-1.04c0.162-0.341,0.243-0.842,0.243-1.505V95.824z"/>
	<path fill="#5C5B5F" d="M171.53,100.279v-8.877h1.354v1.345c0.345-0.629,0.665-1.044,0.957-1.245
		c0.293-0.201,0.614-0.301,0.966-0.301c0.506,0,1.022,0.163,1.546,0.485l-0.519,1.396c-0.368-0.216-0.735-0.326-1.104-0.326
		c-0.329,0-0.624,0.1-0.886,0.296c-0.262,0.198-0.448,0.473-0.56,0.824c-0.167,0.535-0.251,1.121-0.251,1.756v4.647H171.53z"/>
	<path fill="#5C5B5F" d="M183.075,99.185c-0.558,0.474-1.094,0.808-1.609,1.003c-0.516,0.194-1.069,0.292-1.66,0.292
		c-0.976,0-1.725-0.238-2.249-0.714c-0.524-0.477-0.786-1.086-0.786-1.827c0-0.435,0.099-0.831,0.297-1.191
		c0.198-0.359,0.457-0.648,0.777-0.865c0.321-0.217,0.681-0.382,1.083-0.494c0.295-0.077,0.741-0.153,1.337-0.226
		c1.215-0.145,2.11-0.317,2.684-0.518c0.005-0.206,0.009-0.337,0.009-0.394c0-0.612-0.142-1.044-0.427-1.295
		c-0.384-0.34-0.956-0.511-1.714-0.511c-0.708,0-1.229,0.125-1.567,0.373c-0.337,0.248-0.586,0.688-0.748,1.317l-1.471-0.201
		c0.134-0.629,0.354-1.138,0.661-1.525c0.306-0.387,0.75-0.685,1.329-0.895c0.58-0.209,1.25-0.314,2.015-0.314
		c0.757,0,1.374,0.089,1.847,0.268c0.474,0.178,0.822,0.403,1.045,0.673c0.223,0.271,0.379,0.612,0.468,1.024
		c0.05,0.256,0.075,0.718,0.075,1.387v2.006c0,1.399,0.032,2.285,0.096,2.655c0.064,0.37,0.19,0.726,0.38,1.065h-1.572
		C183.22,99.967,183.119,99.602,183.075,99.185z M182.949,95.824c-0.546,0.223-1.366,0.413-2.458,0.568
		c-0.619,0.09-1.056,0.19-1.313,0.301c-0.256,0.112-0.455,0.275-0.594,0.489c-0.139,0.215-0.209,0.453-0.209,0.715
		c0,0.401,0.152,0.735,0.456,1.003c0.304,0.267,0.749,0.401,1.334,0.401c0.579,0,1.095-0.125,1.546-0.38
		c0.451-0.253,0.782-0.6,0.995-1.04c0.161-0.341,0.242-0.842,0.242-1.505V95.824z"/>
	<path fill="#5C5B5F" d="M197.705,97.42l1.556,0.193c-0.246,0.908-0.7,1.613-1.363,2.114c-0.663,0.502-1.51,0.752-2.541,0.752
		c-1.298,0-2.328-0.399-3.089-1.2c-0.761-0.8-1.141-1.922-1.141-3.364c0-1.494,0.385-2.653,1.154-3.478
		c0.769-0.825,1.767-1.238,2.993-1.238c1.187,0,2.157,0.404,2.909,1.212c0.752,0.808,1.128,1.945,1.128,3.411
		c0,0.089-0.003,0.223-0.008,0.401h-6.621c0.056,0.976,0.332,1.723,0.828,2.24c0.496,0.52,1.114,0.778,1.855,0.778
		c0.553,0,1.023-0.145,1.414-0.435C197.167,98.519,197.477,98.056,197.705,97.42z M192.765,94.987h4.958
		c-0.067-0.746-0.257-1.307-0.568-1.68c-0.479-0.58-1.101-0.869-1.865-0.869c-0.691,0-1.272,0.231-1.743,0.694
		C193.076,93.594,192.815,94.213,192.765,94.987z"/>
	<path fill="#5C5B5F" d="M201.151,100.279V88.024h1.505v12.255H201.151z"/>
	<path fill="#5C5B5F" d="M210.005,100.279V88.024h4.222c0.952,0,1.68,0.059,2.181,0.175c0.702,0.162,1.302,0.455,1.798,0.878
		c0.646,0.547,1.129,1.244,1.45,2.095c0.32,0.85,0.48,1.82,0.48,2.913c0,0.931-0.109,1.756-0.326,2.474
		c-0.218,0.72-0.496,1.315-0.835,1.786c-0.34,0.471-0.713,0.841-1.117,1.112c-0.404,0.271-0.892,0.475-1.462,0.614
		c-0.572,0.14-1.228,0.209-1.969,0.209H210.005z M211.626,98.833h2.616c0.809,0,1.442-0.075,1.902-0.226
		c0.459-0.15,0.826-0.363,1.099-0.635c0.384-0.384,0.684-0.901,0.898-1.551s0.322-1.437,0.322-2.362c0-1.282-0.21-2.266-0.631-2.955
		c-0.422-0.688-0.932-1.149-1.534-1.383c-0.435-0.167-1.135-0.252-2.099-0.252h-2.575V98.833z"/>
	<path fill="#5C5B5F" d="M228.287,97.42l1.555,0.193c-0.246,0.908-0.7,1.613-1.362,2.114c-0.664,0.502-1.511,0.752-2.542,0.752
		c-1.298,0-2.328-0.399-3.089-1.2c-0.76-0.8-1.141-1.922-1.141-3.364c0-1.494,0.385-2.653,1.154-3.478
		c0.77-0.825,1.766-1.238,2.992-1.238c1.188,0,2.157,0.404,2.909,1.212c0.753,0.808,1.129,1.945,1.129,3.411
		c0,0.089-0.002,0.223-0.008,0.401h-6.621c0.055,0.976,0.331,1.723,0.827,2.24c0.496,0.52,1.115,0.778,1.856,0.778
		c0.552,0,1.022-0.145,1.412-0.435C227.75,98.519,228.059,98.056,228.287,97.42z M223.346,94.987h4.958
		c-0.066-0.746-0.256-1.307-0.568-1.68c-0.479-0.58-1.101-0.869-1.864-0.869c-0.691,0-1.272,0.231-1.743,0.694
		C223.657,93.594,223.397,94.213,223.346,94.987z"/>
	<path fill="#5C5B5F" d="M231.164,97.629l1.489-0.234c0.083,0.597,0.316,1.054,0.698,1.371c0.381,0.318,0.915,0.477,1.601,0.477
		c0.691,0,1.204-0.141,1.538-0.422c0.334-0.281,0.501-0.612,0.501-0.991c0-0.339-0.147-0.607-0.443-0.803
		c-0.206-0.134-0.718-0.304-1.538-0.509c-1.104-0.279-1.868-0.519-2.294-0.723c-0.427-0.204-0.75-0.485-0.97-0.844
		c-0.221-0.36-0.33-0.757-0.33-1.192c0-0.396,0.089-0.762,0.271-1.099c0.181-0.337,0.428-0.618,0.74-0.84
		c0.234-0.173,0.553-0.318,0.957-0.439c0.404-0.12,0.837-0.18,1.3-0.18c0.697,0,1.308,0.101,1.834,0.301
		c0.527,0.201,0.916,0.472,1.166,0.815c0.252,0.343,0.424,0.802,0.519,1.375l-1.471,0.201c-0.067-0.456-0.262-0.814-0.582-1.07
		s-0.773-0.384-1.358-0.384c-0.691,0-1.184,0.114-1.48,0.342c-0.295,0.229-0.443,0.497-0.443,0.803c0,0.195,0.062,0.372,0.185,0.527
		c0.123,0.162,0.314,0.295,0.576,0.401c0.151,0.055,0.594,0.184,1.33,0.384c1.064,0.284,1.806,0.517,2.227,0.698
		c0.42,0.181,0.751,0.444,0.991,0.79c0.24,0.346,0.36,0.774,0.36,1.288c0,0.501-0.146,0.974-0.439,1.417
		c-0.293,0.443-0.715,0.786-1.267,1.029c-0.552,0.242-1.176,0.363-1.872,0.363c-1.154,0-2.034-0.239-2.638-0.719
		C231.717,99.281,231.331,98.572,231.164,97.629z"/>
	<path fill="#5C5B5F" d="M246.152,99.185c-0.557,0.474-1.093,0.808-1.609,1.003c-0.516,0.194-1.069,0.292-1.659,0.292
		c-0.976,0-1.726-0.238-2.25-0.714c-0.523-0.477-0.786-1.086-0.786-1.827c0-0.435,0.099-0.831,0.297-1.191
		c0.198-0.359,0.456-0.648,0.777-0.865c0.321-0.217,0.682-0.382,1.083-0.494c0.295-0.077,0.741-0.153,1.337-0.226
		c1.215-0.145,2.109-0.317,2.684-0.518c0.005-0.206,0.008-0.337,0.008-0.394c0-0.612-0.142-1.044-0.427-1.295
		c-0.383-0.34-0.956-0.511-1.713-0.511c-0.708,0-1.23,0.125-1.567,0.373c-0.337,0.248-0.586,0.688-0.748,1.317l-1.471-0.201
		c0.134-0.629,0.354-1.138,0.66-1.525c0.306-0.387,0.75-0.685,1.329-0.895c0.58-0.209,1.252-0.314,2.015-0.314
		c0.758,0,1.374,0.089,1.848,0.268c0.474,0.178,0.822,0.403,1.045,0.673c0.223,0.271,0.379,0.612,0.468,1.024
		c0.05,0.256,0.074,0.718,0.074,1.387v2.006c0,1.399,0.033,2.285,0.097,2.655c0.063,0.37,0.191,0.726,0.38,1.065h-1.572
		C246.298,99.967,246.197,99.602,246.152,99.185z M246.028,95.824c-0.546,0.223-1.366,0.413-2.458,0.568
		c-0.618,0.09-1.056,0.19-1.312,0.301c-0.256,0.112-0.455,0.275-0.594,0.489c-0.139,0.215-0.208,0.453-0.208,0.715
		c0,0.401,0.151,0.735,0.456,1.003c0.304,0.267,0.748,0.401,1.333,0.401c0.58,0,1.095-0.125,1.547-0.38
		c0.451-0.253,0.782-0.6,0.994-1.04c0.162-0.341,0.243-0.842,0.243-1.505V95.824z"/>
	<path fill="#5C5B5F" d="M249.899,100.279v-8.877h1.354v1.345c0.346-0.629,0.665-1.044,0.958-1.245
		c0.293-0.201,0.614-0.301,0.966-0.301c0.507,0,1.023,0.163,1.546,0.485l-0.519,1.396c-0.368-0.216-0.735-0.326-1.104-0.326
		c-0.329,0-0.624,0.1-0.886,0.296c-0.262,0.198-0.449,0.473-0.561,0.824c-0.167,0.535-0.25,1.121-0.25,1.756v4.647H249.899z"/>
	<path fill="#5C5B5F" d="M255.635,100.279v-8.877h1.353v1.345c0.346-0.629,0.665-1.044,0.957-1.245
		c0.293-0.201,0.615-0.301,0.966-0.301c0.507,0,1.022,0.163,1.546,0.485l-0.518,1.396c-0.368-0.216-0.736-0.326-1.103-0.326
		c-0.329,0-0.624,0.1-0.886,0.296c-0.262,0.198-0.449,0.473-0.561,0.824c-0.167,0.535-0.25,1.121-0.25,1.756v4.647H255.635z"/>
	<path fill="#5C5B5F" d="M260.827,95.841c0-1.645,0.457-2.862,1.371-3.653c0.764-0.657,1.694-0.987,2.792-0.987
		c1.221,0,2.219,0.4,2.993,1.2c0.774,0.8,1.162,1.905,1.162,3.314c0,1.143-0.17,2.042-0.514,2.696
		c-0.342,0.655-0.841,1.164-1.496,1.525c-0.656,0.362-1.37,0.543-2.145,0.543c-1.242,0-2.247-0.399-3.014-1.195
		C261.209,98.488,260.827,97.339,260.827,95.841z M262.374,95.841c0,1.137,0.248,1.988,0.744,2.554
		c0.496,0.565,1.12,0.848,1.872,0.848c0.748,0,1.369-0.284,1.865-0.853c0.496-0.568,0.744-1.435,0.744-2.6
		c0-1.097-0.25-1.929-0.748-2.495c-0.499-0.566-1.119-0.85-1.86-0.85c-0.752,0-1.376,0.282-1.872,0.845
		S262.374,94.704,262.374,95.841z"/>
	<path fill="#5C5B5F" d="M270.909,100.279V88.024h1.505v12.255H270.909z"/>
	<path fill="#5C5B5F" d="M274.746,100.279V88.024h1.505v12.255H274.746z"/>
	<path fill="#5C5B5F" d="M278.058,95.841c0-1.645,0.457-2.862,1.371-3.653c0.764-0.657,1.694-0.987,2.792-0.987
		c1.221,0,2.218,0.4,2.993,1.2c0.774,0.8,1.162,1.905,1.162,3.314c0,1.143-0.17,2.042-0.514,2.696
		c-0.342,0.655-0.841,1.164-1.496,1.525c-0.656,0.362-1.37,0.543-2.145,0.543c-1.242,0-2.247-0.399-3.014-1.195
		C278.44,98.488,278.058,97.339,278.058,95.841z M279.604,95.841c0,1.137,0.248,1.988,0.744,2.554
		c0.496,0.565,1.12,0.848,1.872,0.848c0.747,0,1.369-0.284,1.865-0.853c0.496-0.568,0.744-1.435,0.744-2.6
		c0-1.097-0.25-1.929-0.748-2.495c-0.499-0.566-1.119-0.85-1.86-0.85c-0.752,0-1.376,0.282-1.872,0.845
		S279.604,94.704,279.604,95.841z"/>
	<path fill="#5C5B5F" d="M292.897,103.699l-0.167-1.413c0.329,0.089,0.616,0.134,0.862,0.134c0.334,0,0.602-0.056,0.802-0.167
		s0.365-0.268,0.494-0.468c0.094-0.15,0.248-0.523,0.459-1.12c0.028-0.084,0.072-0.206,0.134-0.368l-3.369-8.895h1.621l1.849,5.142
		c0.239,0.651,0.454,1.337,0.644,2.055c0.172-0.69,0.379-1.365,0.618-2.022l1.898-5.175h1.504l-3.377,9.028
		c-0.362,0.975-0.643,1.646-0.844,2.014c-0.267,0.497-0.574,0.86-0.92,1.091c-0.345,0.231-0.757,0.347-1.237,0.347
		C293.577,103.882,293.254,103.821,292.897,103.699z"/>
	<path fill="#5C5B5F" d="M310.043,100.279l-4.749-12.255h1.757l3.184,8.902c0.256,0.714,0.471,1.383,0.643,2.006
		c0.19-0.668,0.411-1.337,0.661-2.006l3.311-8.902h1.655l-4.798,12.255H310.043z"/>
	<path fill="#5C5B5F" d="M317.502,89.755v-1.731h1.504v1.731H317.502z M317.502,100.279v-8.877h1.504v8.877H317.502z"/>
	<path fill="#5C5B5F" d="M327.09,100.279v-1.12c-0.563,0.881-1.39,1.321-2.482,1.321c-0.708,0-1.358-0.195-1.952-0.585
		c-0.593-0.39-1.054-0.935-1.379-1.634c-0.326-0.699-0.489-1.504-0.489-2.412c0-0.886,0.147-1.69,0.443-2.412
		c0.294-0.722,0.738-1.274,1.329-1.66c0.59-0.384,1.251-0.577,1.981-0.577c0.535,0,1.011,0.113,1.429,0.339
		c0.418,0.225,0.758,0.519,1.02,0.881v-4.397h1.497v12.255H327.09z M322.334,95.849c0,1.136,0.239,1.987,0.718,2.549
		c0.479,0.563,1.045,0.845,1.697,0.845c0.657,0,1.216-0.269,1.676-0.807c0.459-0.538,0.69-1.357,0.69-2.461
		c0-1.215-0.234-2.106-0.703-2.675c-0.468-0.568-1.045-0.854-1.73-0.854c-0.669,0-1.228,0.274-1.677,0.82
		C322.558,93.812,322.334,94.673,322.334,95.849z"/>
	<path fill="#5C5B5F" d="M336.679,99.185c-0.557,0.474-1.094,0.808-1.61,1.003c-0.515,0.194-1.068,0.292-1.658,0.292
		c-0.976,0-1.726-0.238-2.249-0.714c-0.524-0.477-0.786-1.086-0.786-1.827c0-0.435,0.099-0.831,0.296-1.191
		c0.198-0.359,0.457-0.648,0.778-0.865c0.32-0.217,0.681-0.382,1.082-0.494c0.296-0.077,0.741-0.153,1.337-0.226
		c1.215-0.145,2.109-0.317,2.684-0.518c0.005-0.206,0.008-0.337,0.008-0.394c0-0.612-0.142-1.044-0.427-1.295
		c-0.384-0.34-0.956-0.511-1.713-0.511c-0.707,0-1.23,0.125-1.567,0.373c-0.338,0.248-0.587,0.688-0.748,1.317l-1.471-0.201
		c0.134-0.629,0.354-1.138,0.66-1.525c0.307-0.387,0.75-0.685,1.329-0.895c0.58-0.209,1.251-0.314,2.015-0.314
		c0.757,0,1.373,0.089,1.848,0.268c0.474,0.178,0.822,0.403,1.044,0.673c0.223,0.271,0.379,0.612,0.468,1.024
		c0.051,0.256,0.075,0.718,0.075,1.387v2.006c0,1.399,0.033,2.285,0.097,2.655c0.063,0.37,0.191,0.726,0.38,1.065h-1.571
		C336.824,99.967,336.724,99.602,336.679,99.185z M336.554,95.824c-0.546,0.223-1.366,0.413-2.458,0.568
		c-0.618,0.09-1.056,0.19-1.312,0.301c-0.256,0.112-0.454,0.275-0.594,0.489c-0.139,0.215-0.208,0.453-0.208,0.715
		c0,0.401,0.151,0.735,0.456,1.003c0.304,0.267,0.748,0.401,1.333,0.401c0.58,0,1.094-0.125,1.547-0.38
		c0.451-0.253,0.782-0.6,0.995-1.04c0.162-0.341,0.243-0.842,0.243-1.505V95.824z"/>
	<path fill="#5C5B5F" d="M344.63,97.629l1.488-0.234c0.083,0.597,0.316,1.054,0.698,1.371c0.381,0.318,0.915,0.477,1.601,0.477
		c0.691,0,1.204-0.141,1.538-0.422c0.334-0.281,0.501-0.612,0.501-0.991c0-0.339-0.147-0.607-0.443-0.803
		c-0.206-0.134-0.718-0.304-1.538-0.509c-1.104-0.279-1.868-0.519-2.294-0.723c-0.427-0.204-0.75-0.485-0.97-0.844
		c-0.221-0.36-0.33-0.757-0.33-1.192c0-0.396,0.089-0.762,0.271-1.099c0.181-0.337,0.428-0.618,0.74-0.84
		c0.234-0.173,0.553-0.318,0.957-0.439c0.404-0.12,0.837-0.18,1.3-0.18c0.697,0,1.308,0.101,1.834,0.301
		c0.527,0.201,0.917,0.472,1.166,0.815c0.252,0.343,0.424,0.802,0.519,1.375l-1.471,0.201c-0.067-0.456-0.262-0.814-0.582-1.07
		s-0.773-0.384-1.358-0.384c-0.691,0-1.184,0.114-1.48,0.342c-0.295,0.229-0.443,0.497-0.443,0.803c0,0.195,0.061,0.372,0.184,0.527
		c0.123,0.162,0.314,0.295,0.576,0.401c0.151,0.055,0.594,0.184,1.33,0.384c1.064,0.284,1.806,0.517,2.227,0.698
		c0.42,0.181,0.751,0.444,0.991,0.79c0.24,0.346,0.36,0.774,0.36,1.288c0,0.501-0.146,0.974-0.439,1.417
		c-0.293,0.443-0.715,0.786-1.266,1.029c-0.553,0.242-1.176,0.363-1.873,0.363c-1.154,0-2.034-0.239-2.638-0.719
		C345.184,99.281,344.797,98.572,344.63,97.629z"/>
	<path fill="#5C5B5F" d="M353.835,89.755v-1.731h1.505v1.731H353.835z M353.835,100.279v-8.877h1.505v8.877H353.835z"/>
	<path fill="#5C5B5F" d="M357.664,100.279v-8.877h1.355v1.262c0.651-0.976,1.593-1.463,2.824-1.463c0.536,0,1.027,0.096,1.476,0.289
		c0.449,0.192,0.785,0.444,1.008,0.756c0.223,0.312,0.379,0.683,0.468,1.112c0.056,0.279,0.083,0.767,0.083,1.463v5.459h-1.504v-5.4
		c0-0.614-0.059-1.071-0.175-1.375c-0.118-0.303-0.326-0.546-0.623-0.727c-0.298-0.181-0.648-0.272-1.049-0.272
		c-0.641,0-1.194,0.203-1.659,0.61c-0.466,0.407-0.699,1.179-0.699,2.315v4.849H357.664z"/>
	<path fill="#5C5B5F" d="M372.203,100.279V88.024h4.221c0.954,0,1.681,0.059,2.183,0.175c0.702,0.162,1.301,0.455,1.797,0.878
		c0.646,0.547,1.129,1.244,1.451,2.095c0.321,0.85,0.48,1.82,0.48,2.913c0,0.931-0.108,1.756-0.326,2.474
		c-0.216,0.72-0.496,1.315-0.836,1.786c-0.339,0.471-0.711,0.841-1.116,1.112c-0.404,0.271-0.891,0.475-1.462,0.614
		c-0.571,0.14-1.227,0.209-1.969,0.209H372.203z M373.825,98.833h2.617c0.808,0,1.441-0.075,1.901-0.226
		c0.459-0.15,0.826-0.363,1.099-0.635c0.384-0.384,0.684-0.901,0.898-1.551c0.214-0.649,0.322-1.437,0.322-2.362
		c0-1.282-0.21-2.266-0.631-2.955c-0.421-0.688-0.933-1.149-1.535-1.383c-0.435-0.167-1.133-0.252-2.098-0.252h-2.575V98.833z"/>
	<path fill="#5C5B5F" d="M384.393,100.279v-8.877h1.354v1.345c0.346-0.629,0.666-1.044,0.958-1.245
		c0.293-0.201,0.614-0.301,0.966-0.301c0.506,0,1.022,0.163,1.546,0.485l-0.519,1.396c-0.368-0.216-0.735-0.326-1.104-0.326
		c-0.329,0-0.624,0.1-0.886,0.296c-0.263,0.198-0.449,0.473-0.561,0.824c-0.167,0.535-0.25,1.121-0.25,1.756v4.647H384.393z"/>
	<path fill="#5C5B5F" d="M389.584,95.841c0-1.645,0.457-2.862,1.371-3.653c0.764-0.657,1.694-0.987,2.792-0.987
		c1.22,0,2.218,0.4,2.993,1.2c0.774,0.8,1.162,1.905,1.162,3.314c0,1.143-0.171,2.042-0.514,2.696
		c-0.342,0.655-0.841,1.164-1.496,1.525c-0.655,0.362-1.37,0.543-2.144,0.543c-1.242,0-2.248-0.399-3.014-1.195
		C389.967,98.488,389.584,97.339,389.584,95.841z M391.131,95.841c0,1.137,0.247,1.988,0.744,2.554
		c0.496,0.565,1.12,0.848,1.873,0.848c0.747,0,1.368-0.284,1.865-0.853c0.495-0.568,0.744-1.435,0.744-2.6
		c0-1.097-0.25-1.929-0.748-2.495c-0.499-0.566-1.12-0.85-1.86-0.85c-0.752,0-1.376,0.282-1.873,0.845
		C391.378,93.854,391.131,94.704,391.131,95.841z"/>
	<path fill="#5C5B5F" d="M399.424,101.015l1.463,0.217c0.061,0.451,0.231,0.78,0.51,0.986c0.373,0.279,0.883,0.418,1.529,0.418
		c0.697,0,1.234-0.139,1.614-0.418c0.379-0.279,0.635-0.669,0.769-1.17c0.079-0.306,0.115-0.95,0.109-1.931
		c-0.658,0.774-1.478,1.162-2.458,1.162c-1.219,0-2.165-0.44-2.833-1.32c-0.669-0.881-1.003-1.937-1.003-3.169
		c0-0.847,0.153-1.628,0.459-2.344c0.307-0.716,0.751-1.27,1.333-1.66c0.582-0.39,1.267-0.585,2.052-0.585
		c1.048,0,1.911,0.424,2.591,1.271v-1.07h1.388v7.674c0,1.382-0.141,2.362-0.423,2.938c-0.281,0.577-0.727,1.032-1.337,1.366
		c-0.61,0.334-1.361,0.502-2.253,0.502c-1.058,0-1.915-0.238-2.565-0.714C399.716,102.691,399.402,101.973,399.424,101.015z
		 M400.67,95.682c0,1.166,0.231,2.014,0.693,2.549c0.463,0.535,1.042,0.802,1.739,0.802c0.691,0,1.271-0.266,1.739-0.798
		c0.468-0.532,0.702-1.367,0.702-2.503c0-1.087-0.241-1.906-0.723-2.458c-0.482-0.552-1.063-0.828-1.742-0.828
		c-0.669,0-1.238,0.272-1.706,0.816C400.904,93.805,400.67,94.611,400.67,95.682z"/>
	<path fill="#5C5B5F" d="M415.048,99.185c-0.557,0.474-1.094,0.808-1.61,1.003c-0.515,0.194-1.068,0.292-1.658,0.292
		c-0.976,0-1.726-0.238-2.25-0.714c-0.523-0.477-0.786-1.086-0.786-1.827c0-0.435,0.099-0.831,0.296-1.191
		c0.198-0.359,0.457-0.648,0.778-0.865c0.32-0.217,0.681-0.382,1.082-0.494c0.296-0.077,0.741-0.153,1.337-0.226
		c1.215-0.145,2.109-0.317,2.684-0.518c0.005-0.206,0.008-0.337,0.008-0.394c0-0.612-0.142-1.044-0.427-1.295
		c-0.384-0.34-0.956-0.511-1.713-0.511c-0.707,0-1.23,0.125-1.567,0.373c-0.338,0.248-0.587,0.688-0.748,1.317l-1.471-0.201
		c0.134-0.629,0.354-1.138,0.66-1.525c0.307-0.387,0.75-0.685,1.329-0.895c0.58-0.209,1.251-0.314,2.015-0.314
		c0.757,0,1.373,0.089,1.848,0.268c0.474,0.178,0.822,0.403,1.044,0.673c0.223,0.271,0.379,0.612,0.468,1.024
		c0.051,0.256,0.075,0.718,0.075,1.387v2.006c0,1.399,0.032,2.285,0.097,2.655c0.063,0.37,0.191,0.726,0.38,1.065h-1.571
		C415.193,99.967,415.093,99.602,415.048,99.185z M414.923,95.824c-0.546,0.223-1.366,0.413-2.458,0.568
		c-0.618,0.09-1.057,0.19-1.312,0.301c-0.256,0.112-0.454,0.275-0.594,0.489c-0.139,0.215-0.208,0.453-0.208,0.715
		c0,0.401,0.151,0.735,0.456,1.003c0.304,0.267,0.748,0.401,1.333,0.401c0.58,0,1.094-0.125,1.547-0.38
		c0.451-0.253,0.782-0.6,0.995-1.04c0.162-0.341,0.243-0.842,0.243-1.505V95.824z"/>
	<path fill="#5C5B5F" d="M418.209,97.629l1.489-0.234c0.083,0.597,0.316,1.054,0.698,1.371c0.381,0.318,0.915,0.477,1.601,0.477
		c0.691,0,1.204-0.141,1.538-0.422s0.501-0.612,0.501-0.991c0-0.339-0.147-0.607-0.443-0.803c-0.206-0.134-0.718-0.304-1.538-0.509
		c-1.104-0.279-1.868-0.519-2.294-0.723c-0.427-0.204-0.75-0.485-0.97-0.844c-0.221-0.36-0.33-0.757-0.33-1.192
		c0-0.396,0.09-0.762,0.271-1.099c0.181-0.337,0.428-0.618,0.74-0.84c0.234-0.173,0.553-0.318,0.957-0.439
		c0.404-0.12,0.837-0.18,1.3-0.18c0.697,0,1.309,0.101,1.834,0.301c0.527,0.201,0.917,0.472,1.167,0.815
		c0.251,0.343,0.424,0.802,0.519,1.375l-1.471,0.201c-0.067-0.456-0.261-0.814-0.582-1.07c-0.321-0.256-0.774-0.384-1.358-0.384
		c-0.691,0-1.184,0.114-1.48,0.342c-0.295,0.229-0.443,0.497-0.443,0.803c0,0.195,0.062,0.372,0.185,0.527
		c0.122,0.162,0.314,0.295,0.576,0.401c0.15,0.055,0.594,0.184,1.33,0.384c1.064,0.284,1.807,0.517,2.228,0.698
		c0.42,0.181,0.751,0.444,0.99,0.79c0.24,0.346,0.36,0.774,0.36,1.288c0,0.501-0.147,0.974-0.439,1.417
		c-0.293,0.443-0.715,0.786-1.266,1.029c-0.553,0.242-1.176,0.363-1.873,0.363c-1.154,0-2.034-0.239-2.638-0.719
		C418.762,99.281,418.376,98.572,418.209,97.629z"/>
</g>
<path fill="#5C5B5F" d="M117.409,23.774h27.84c4.414,0,8.293,0.813,11.638,2.438c3.345,1.625,6.097,3.775,8.259,6.452
	c2.16,2.677,3.776,5.653,4.846,8.931c1.069,3.277,1.604,6.582,1.604,9.914c0,4.506-1.001,8.896-3.004,13.17
	c-2.002,4.274-5.13,7.784-9.384,10.528c-4.256,2.744-9.545,4.117-15.87,4.117h-25.028v-1.532c0,0,2.12,0.037,2.559,0.001
	c1.043-0.086,2.032-1.328,2.042-2.633c0.014-1.943,0.042-44.052,0.042-45.603c0-2.666-1.614-3.974-2.703-3.974
	c-1.275,0-2.84,0-2.84,0V23.774z M136.417,75.216c2.554,0.011,8.513,0.05,8.896-0.125c11.716-5.318,11.929-20.196,11.929-23.337
	c0-14.419-9.749-23.43-11.814-23.43c-3.19,0-6.457,0.075-8.935,0.075L136.417,75.216z"/>
<path fill="#1A8E59" d="M62.22,62.965l9.134,15.579l24.893-38.688c0,0,1.472-1.734,0.545-4.231
	c-0.199-0.537-8.957-15.091-8.957-15.091L62.22,62.965z"/>
<path fill="#1A8E59" d="M51.257,45.623l9.454,16.167l24.156-40.018c0,0,1.643-1.945,0.854-5.032L76.944,1.77L51.257,45.623z"/>
<path fill="#2091C7" d="M23.931,2.283l-9.236,13.291c0,0-1.651,3.078,1.153,7.508c2.005,3.168,30.609,51.286,30.609,51.286
	s2.328,4.956,7.284,4.956c3.83,0,14.117,0.001,14.117,0.001L23.931,2.283z"/>
<path fill="#2091C7" d="M12.375,20.639L3.341,34.067c0,0-1.605,3.104,1.266,7.491C5.852,43.46,17.12,61.486,25.801,75.544
	c0.729,1.181,2.057,3.448,5.086,3.448c0.663,0,16.062,0.001,16.062,0.001L12.375,20.639z"/>
<path fill="#5C5B5F" d="M311.863,77.604c-1.883,0-3.296-0.253-4.238-0.758c-0.941-0.505-1.068-2.21-1.068-3.481
	c0-0.748-0.001-43.059-0.001-43.63c0-1.303,0.278-3.01,1.219-3.502c0.941-0.491,2.307-0.737,4.099-0.737h-0.337v-1.721h-22.833
	l0.01,1.721c1.883,0,3.296,0.253,4.238,0.758c0.941,0.505,1.07,2.21,1.07,3.481c0,0.709,0,43.009,0,43.63
	c0,1.302-0.278,3.01-1.219,3.502c-0.942,0.491-2.307,0.737-4.099,0.737h0.337v1.72h22.833v-2.621L311.863,77.604z"/>
</svg>
